{
	"asset":{
		"generator":"Khronos glTF Blender I/O v5.0.21",
		"version":"2.0"
	},
	"scene":0,
	"scenes":[
		{
			"name":"Scene",
			"nodes":[
				0,
				1,
				2,
				3,
				4
			]
		}
	],
	"nodes":[
		{
			"mesh":0,
			"name":"BrickBuildingFront"
		},
		{
			"mesh":1,
			"name":"IndustrialBuildingFront"
		},
		{
			"mesh":2,
			"name":"Road",
			"scale":[
				2,
				2,
				2
			]
		},
		{
			"mesh":3,
			"name":"SideWalk"
		},
		{
			"mesh":4,
			"name":"SideWalkCorner"
		}
	],
	"materials":[
		{
			"doubleSided":true,
			"name":"brick_building",
			"pbrMetallicRoughness":{
				"metallicFactor":0,
				"roughnessFactor":0.5
			}
		},
		{
			"doubleSided":true,
			"name":"industrial_building",
			"pbrMetallicRoughness":{
				"metallicFactor":0,
				"roughnessFactor":0.5
			}
		},
		{
			"doubleSided":true,
			"name":"road",
			"pbrMetallicRoughness":{
				"metallicFactor":0,
				"roughnessFactor":0.5
			}
		},
		{
			"doubleSided":true,
			"name":"sidewalk",
			"pbrMetallicRoughness":{
				"metallicFactor":0,
				"roughnessFactor":0.5
			}
		}
	],
	"meshes":[
		{
			"name":"Plane",
			"primitives":[
				{
					"attributes":{
						"POSITION":0,
						"NORMAL":1,
						"TEXCOORD_0":2,
						"TANGENT":3
					},
					"indices":4,
					"material":0
				}
			]
		},
		{
			"name":"Plane.001",
			"primitives":[
				{
					"attributes":{
						"POSITION":5,
						"NORMAL":6,
						"TEXCOORD_0":7
					},
					"indices":8,
					"material":1
				}
			]
		},
		{
			"name":"Plane.004",
			"primitives":[
				{
					"attributes":{
						"POSITION":9,
						"NORMAL":10,
						"TEXCOORD_0":11,
						"TANGENT":12
					},
					"indices":13,
					"material":2
				}
			]
		},
		{
			"name":"Plane.008",
			"primitives":[
				{
					"attributes":{
						"POSITION":14,
						"NORMAL":15,
						"TEXCOORD_0":16,
						"TANGENT":17
					},
					"indices":18,
					"material":3
				}
			]
		},
		{
			"name":"Plane.009",
			"primitives":[
				{
					"attributes":{
						"POSITION":19,
						"NORMAL":20,
						"TEXCOORD_0":21,
						"TANGENT":22
					},
					"indices":23,
					"material":3
				}
			]
		}
	],
	"accessors":[
		{
			"bufferView":0,
			"componentType":5126,
			"count":94,
			"max":[
				3.999999761581421,
				7.9960198402404785,
				0
			],
			"min":[
				-3.999999761581421,
				0,
				-0.3326874375343323
			],
			"type":"VEC3"
		},
		{
			"bufferView":1,
			"componentType":5126,
			"count":94,
			"type":"VEC3"
		},
		{
			"bufferView":2,
			"componentType":5126,
			"count":94,
			"type":"VEC2"
		},
		{
			"bufferView":3,
			"componentType":5126,
			"count":94,
			"type":"VEC4"
		},
		{
			"bufferView":4,
			"componentType":5123,
			"count":180,
			"type":"SCALAR"
		},
		{
			"bufferView":5,
			"componentType":5126,
			"count":302,
			"max":[
				3.999999761581421,
				8,
				0
			],
			"min":[
				-3.999999761581421,
				0,
				-0.07118384540081024
			],
			"type":"VEC3"
		},
		{
			"bufferView":6,
			"componentType":5126,
			"count":302,
			"type":"VEC3"
		},
		{
			"bufferView":7,
			"componentType":5126,
			"count":302,
			"type":"VEC2"
		},
		{
			"bufferView":8,
			"componentType":5123,
			"count":612,
			"type":"SCALAR"
		},
		{
			"bufferView":9,
			"componentType":5126,
			"count":4,
			"max":[
				1,
				0,
				1
			],
			"min":[
				-1,
				0,
				-1
			],
			"type":"VEC3"
		},
		{
			"bufferView":10,
			"componentType":5126,
			"count":4,
			"type":"VEC3"
		},
		{
			"bufferView":11,
			"componentType":5126,
			"count":4,
			"type":"VEC2"
		},
		{
			"bufferView":12,
			"componentType":5126,
			"count":4,
			"type":"VEC4"
		},
		{
			"bufferView":13,
			"componentType":5123,
			"count":6,
			"type":"SCALAR"
		},
		{
			"bufferView":14,
			"componentType":5126,
			"count":8,
			"max":[
				4,
				0.10000000149011612,
				1
			],
			"min":[
				0,
				0,
				0
			],
			"type":"VEC3"
		},
		{
			"bufferView":15,
			"componentType":5126,
			"count":8,
			"type":"VEC3"
		},
		{
			"bufferView":16,
			"componentType":5126,
			"count":8,
			"type":"VEC2"
		},
		{
			"bufferView":17,
			"componentType":5126,
			"count":8,
			"type":"VEC4"
		},
		{
			"bufferView":18,
			"componentType":5123,
			"count":12,
			"type":"SCALAR"
		},
		{
			"bufferView":19,
			"componentType":5126,
			"count":12,
			"max":[
				1,
				0.10000000149011612,
				1
			],
			"min":[
				0,
				0,
				0
			],
			"type":"VEC3"
		},
		{
			"bufferView":20,
			"componentType":5126,
			"count":12,
			"type":"VEC3"
		},
		{
			"bufferView":21,
			"componentType":5126,
			"count":12,
			"type":"VEC2"
		},
		{
			"bufferView":22,
			"componentType":5126,
			"count":12,
			"type":"VEC4"
		},
		{
			"bufferView":23,
			"componentType":5123,
			"count":18,
			"type":"SCALAR"
		}
	],
	"bufferViews":[
		{
			"buffer":0,
			"byteLength":1128,
			"byteOffset":0,
			"target":34962
		},
		{
			"buffer":0,
			"byteLength":1128,
			"byteOffset":1128,
			"target":34962
		},
		{
			"buffer":0,
			"byteLength":752,
			"byteOffset":2256,
			"target":34962
		},
		{
			"buffer":0,
			"byteLength":1504,
			"byteOffset":3008,
			"target":34962
		},
		{
			"buffer":0,
			"byteLength":360,
			"byteOffset":4512,
			"target":34963
		},
		{
			"buffer":0,
			"byteLength":3624,
			"byteOffset":4872,
			"target":34962
		},
		{
			"buffer":0,
			"byteLength":3624,
			"byteOffset":8496,
			"target":34962
		},
		{
			"buffer":0,
			"byteLength":2416,
			"byteOffset":12120,
			"target":34962
		},
		{
			"buffer":0,
			"byteLength":1224,
			"byteOffset":14536,
			"target":34963
		},
		{
			"buffer":0,
			"byteLength":48,
			"byteOffset":15760,
			"target":34962
		},
		{
			"buffer":0,
			"byteLength":48,
			"byteOffset":15808,
			"target":34962
		},
		{
			"buffer":0,
			"byteLength":32,
			"byteOffset":15856,
			"target":34962
		},
		{
			"buffer":0,
			"byteLength":64,
			"byteOffset":15888,
			"target":34962
		},
		{
			"buffer":0,
			"byteLength":12,
			"byteOffset":15952,
			"target":34963
		},
		{
			"buffer":0,
			"byteLength":96,
			"byteOffset":15964,
			"target":34962
		},
		{
			"buffer":0,
			"byteLength":96,
			"byteOffset":16060,
			"target":34962
		},
		{
			"buffer":0,
			"byteLength":64,
			"byteOffset":16156,
			"target":34962
		},
		{
			"buffer":0,
			"byteLength":128,
			"byteOffset":16220,
			"target":34962
		},
		{
			"buffer":0,
			"byteLength":24,
			"byteOffset":16348,
			"target":34963
		},
		{
			"buffer":0,
			"byteLength":144,
			"byteOffset":16372,
			"target":34962
		},
		{
			"buffer":0,
			"byteLength":144,
			"byteOffset":16516,
			"target":34962
		},
		{
			"buffer":0,
			"byteLength":96,
			"byteOffset":16660,
			"target":34962
		},
		{
			"buffer":0,
			"byteLength":192,
			"byteOffset":16756,
			"target":34962
		},
		{
			"buffer":0,
			"byteLength":36,
			"byteOffset":16948,
			"target":34963
		}
	],
	"buffers":[
		{
			"byteLength":16984,
			"uri":"buildings-7638835d0dd21a4d74c65e2c13ec13e3.bin"
		}
	]
}
